<svg xmlns="http://www.w3.org/2000/svg" width="15" height="10" fill="none" viewBox="0 0 15 10"><path fill="#fff" d="M0 4.99989C0 4.71782 0.260269 4.48482 0.596331 4.45064L0.681818 4.44632H14.3182C14.5945 4.44632 14.8427 4.58139 14.9482 4.7888C14.9827 4.8567 15 4.92829 15 4.99989C15 5.11983 14.952 5.23874 14.8597 5.33613L14.7991 5.39182L9.29909 9.83882C9.03273 10.0543 8.60091 10.0536 8.33545 9.83734C8.09212 9.63843 8.07184 9.32725 8.27602 9.11077L8.33727 9.05423L12.6673 5.55346H0.681818C0.305455 5.55346 0 5.30546 0 4.99989ZM8.33718 0.945773C8.06991 0.730251 8.06991 0.379657 8.33536 0.162658C8.5787 -0.0355811 8.96182 -0.0527212 9.22985 0.111806L9.29991 0.161182L12.3326 2.61386C12.4672 2.72236 12.5335 2.86407 12.5335 3.00653C12.5335 3.1475 12.4672 3.28848 12.3345 3.39698C12.0911 3.59589 11.7088 3.61309 11.4409 3.448L11.3708 3.39845L8.33718 0.945773Z"/></svg>