<svg xmlns="http://www.w3.org/2000/svg" width="24" height="20" fill="none" viewBox="0 0 24 20"><path fill="#fff" d="M24 10.0002C24 10.5644 23.5836 11.0304 23.0459 11.0987L22.9091 11.1074L1.09091 11.1074C0.648727 11.1074 0.251636 10.8372 0.0829091 10.4224C0.0276364 10.2866 0 10.1434 0 10.0002C0 9.76034 0.0767677 9.52251 0.224411 9.32774L0.321455 9.21637L9.12145 0.322365C9.54764 -0.108681 10.2385 -0.107208 10.6633 0.325314C11.0526 0.723146 11.0851 1.34549 10.7584 1.77847L10.6604 1.89155L3.73236 8.89308L22.9091 8.89308C23.5113 8.89308 24 9.38908 24 10.0002ZM10.6605 18.1085C11.0881 18.5395 11.0881 19.2407 10.6634 19.6747C10.2741 20.0712 9.66109 20.1054 9.23223 19.7764L9.12015 19.6776L4.26778 14.7723C4.05251 14.5553 3.94633 14.2719 3.94633 13.9869C3.94633 13.705 4.05251 13.423 4.26487 13.206C4.65421 12.8082 5.26598 12.7738 5.69463 13.104L5.80669 13.2031L10.6605 18.1085Z"/></svg>