<svg width="35" height="35" viewBox="0 0 35 35" fill="none" xmlns="http://www.w3.org/2000/svg">
<path d="M17.5 0C27.1495 0 35 7.84875 35 17.5C35 27.1495 27.1495 35 17.5 35C15.0588 35 12.6962 34.5083 10.4773 33.5335C9.83675 33.2535 9.54625 32.5062 9.82625 31.8657C10.1062 31.2218 10.8517 30.933 11.4957 31.2148C13.391 32.046 15.4105 32.4678 17.5 32.4678C25.7513 32.4678 32.466 25.7513 32.466 17.5C32.466 9.247 25.7513 2.534 17.5 2.534C9.247 2.534 2.534 9.247 2.534 17.5C2.534 20.7323 3.5455 23.807 5.4635 26.397C5.87825 26.9587 5.761 27.7515 5.19925 28.168C4.63575 28.5863 3.843 28.4707 3.4265 27.9037C1.18475 24.878 0 21.28 0 17.5C0 7.84875 7.8505 0 17.5 0ZM15.5118 10.5532C15.9021 10.5637 16.6161 10.8297 16.9048 10.9434C18.6886 11.6352 21.99 13.8322 23.5277 15.3211L23.7946 15.5914L23.9328 15.7402C24.0973 15.9135 24.3003 16.1339 24.3476 16.1934C24.6398 16.5662 24.7991 17.0299 24.7991 17.5007C24.7991 17.9469 24.6591 18.3774 24.3966 18.7397C24.3476 18.8055 24.1709 19.0035 24.0126 19.175L23.8996 19.2962L23.8138 19.3872C22.3893 20.9202 18.8631 23.2372 17.0816 23.988C17.072 23.9927 16.1947 24.3576 15.65 24.4331L15.4978 24.4465H15.4348C14.6613 24.4465 13.9298 24.0037 13.5693 23.3072C13.4191 23.0157 13.2736 22.3374 13.2047 21.985L13.1685 21.793L13.1633 21.7637C12.9971 20.7522 12.9026 19.1965 12.906 17.499C12.9026 15.7035 13.0076 14.0917 13.1913 13.0785C13.1931 13.0645 13.3681 12.1492 13.4993 11.8412C13.6778 11.4089 14.0138 11.0379 14.4391 10.8069C14.7821 10.6267 15.1408 10.5479 15.5118 10.5532ZM15.7481 13.2132C15.7218 13.334 15.6973 13.4529 15.6833 13.5335C15.5311 14.3752 15.4366 15.896 15.4383 17.499C15.4366 19.0442 15.5206 20.4862 15.6641 21.3524C15.6816 21.4609 15.7148 21.6272 15.7516 21.7882C15.8776 21.7375 16.0141 21.6867 16.0998 21.6517C17.7203 20.9692 20.8948 18.808 21.9571 17.66C21.9658 17.6617 22.0568 17.5584 22.0586 17.5549C22.0743 17.5374 22.0918 17.5182 22.1111 17.5007L22.0988 17.4876L22.0866 17.4745L21.9396 17.3187C20.8423 16.1445 17.4981 13.8904 15.9808 13.3007C15.9266 13.2797 15.8426 13.2482 15.7481 13.2132Z" fill="white"/>
</svg>
