<svg width="12" height="18" viewBox="0 0 12 18" fill="none" xmlns="http://www.w3.org/2000/svg">
<path d="M11.3162 7.04358C11.6937 7.04358 12 7.42843 12 7.90453C12 11.7779 9.67098 14.9764 6.68414 15.406V17.1391C6.68414 17.6143 6.3778 18 6.00034 18C5.6222 18 5.31654 17.6143 5.31654 17.1391V15.406C2.32902 14.9764 0 11.7779 0 7.90453C0 7.42843 0.306342 7.04358 0.6838 7.04358C1.06126 7.04358 1.3676 7.42843 1.3676 7.90453C1.3676 11.1202 3.44567 13.7366 6.00034 13.7366C8.55433 13.7366 10.6324 11.1202 10.6324 7.90453C10.6324 7.42843 10.9387 7.04358 11.3162 7.04358ZM6.12336 0C7.5313 0 8.71769 1.19155 9.08079 2.81788C9.13071 3.04087 8.99874 3.26213 8.81548 3.26213H8.01612C7.77473 3.26213 7.57848 3.50836 7.57848 3.81228C7.57848 4.11791 7.77473 4.36414 8.01612 4.36414H8.75325C8.99737 4.36414 9.19567 4.61296 9.19567 4.92031C9.19567 5.22767 8.99737 5.47649 8.75325 5.47649H8.01612C7.77473 5.47649 7.57848 5.72358 7.57848 6.02835C7.57848 6.33227 7.77473 6.57936 8.01612 6.57936H8.75325C8.99737 6.57936 9.19567 6.82817 9.19567 7.13639C9.19567 7.44289 8.99737 7.6917 8.75325 7.6917H8.01612C7.77473 7.6917 7.57848 7.9388 7.57848 8.24357C7.57848 8.54749 7.77473 8.79372 8.01612 8.79372H8.7765C8.96386 8.79372 9.09789 9.02445 9.03908 9.2483C8.63359 10.7859 7.48207 11.8948 6.12336 11.8948H5.87651C4.18 11.8948 2.80488 10.1635 2.80488 8.02833V3.86738C2.80488 1.73137 4.18 0 5.87651 0H6.12336Z" fill="#B3B3B3"/>
</svg>
